PathFileType	4	(X/Y/Z)	D:\TRACE\spotREDO_2-26-24\spot_justBody_Motion_2_3-v60.trc
DataRate	CameraRate	NumFrames	NumMarkers	Units	OrigDataRate	OrigDataStartFrame	OrigNumFrames
100.00	100.00	      21	9	mm	100.00	3501	      7000
Frame#	Time	front left toe			Front right toe			aft left toe			aft right toe			Arm			FL body			FR body			AL Body			AR Body			
		X1	Y1	Z1	X2	Y2	Z2	X3	Y3	Z3	X4	Y4	Z4	X5	Y5	Z5	X6	Y6	Z6	X7	Y7	Z7	X8	Y8	Z8	X9	Y9	Z9	

3501	35.000	-182.21225	9.10589	-155.53821	288.95383	3.29876	-188.63036	-222.77347	142.32639	282.01630	257.64493	44.88496	293.02512	90.02374	810.13788	-390.10825	11.37102	548.96667	-365.24924	167.03568	556.49774	-363.45605	-10.48243	567.96924	517.37164	138.34525	571.17151	521.82031	
3502	35.010	-181.64977	8.73953	-155.65366	289.32693	2.91635	-188.65497	-221.70975	145.87221	282.91220	258.01520	45.28896	292.90268	90.00813	809.90753	-391.14377	10.85927	548.69238	-366.66092	166.96013	555.93372	-364.35028	-9.28296	568.46198	517.22949	138.47139	572.01038	521.07684	
3503	35.020	-181.21800	8.38230	-155.66312	289.64966	2.82778	-188.69016	-221.39944	150.48994	280.87207	258.20776	45.60453	292.79630	90.00403	809.14636	-391.98245	11.18509	548.04388	-366.51111	166.88354	555.38721	-364.70941	-9.34308	569.30933	516.69684	138.69873	572.51111	520.56061	
3504	35.030	-180.98123	8.26256	-155.73944	289.74451	2.54587	-188.97594	-218.70924	151.73535	278.95288	258.54675	45.87421	292.57907	90.31696	808.06049	-392.67007	11.23775	547.44165	-367.11780	166.96440	554.80914	-365.06039	-9.11585	569.72180	515.94165	139.08023	572.99963	520.14459	
3505	35.040	-180.56927	8.14771	-155.84181	290.07941	2.51049	-189.36905	-215.50505	150.70607	278.78021	259.30887	46.32386	292.63351	89.92930	807.82043	-393.47910	11.38624	547.21075	-367.67471	167.04276	554.45313	-365.49701	-8.86897	569.90015	515.74670	139.00546	573.41541	519.62598	
3506	35.050	-180.15610	7.97351	-155.89810	290.53561	2.59331	-189.53304	-214.05469	149.06964	279.24533	260.02350	46.55198	292.50641	89.64406	807.48596	-394.24902	11.62464	546.81470	-368.03207	167.16350	554.29034	-365.98889	-9.00689	569.94110	515.17133	138.87143	573.80585	519.21429	
3507	35.060	-179.44786	7.62996	-156.05936	291.53229	2.82393	-189.39476	-210.31415	146.68182	280.51834	260.63260	46.82043	292.34949	89.66933	807.32593	-394.54153	11.66683	546.45764	-368.41284	167.32013	554.11578	-366.27084	-9.06469	569.94000	514.75897	138.60791	574.01233	518.73376	
3508	35.070	-179.08171	7.57856	-156.23320	291.99127	2.50347	-189.41336	-208.00189	146.29813	281.39166	260.71460	46.75908	292.01706	89.74370	807.20624	-394.97119	11.41282	546.32672	-369.47400	167.54156	553.80878	-366.54028	-9.09926	569.98358	514.51300	138.50845	574.13544	518.43750	
3509	35.080	-178.67110	7.75003	-156.17563	292.44131	2.26473	-189.37779	-205.93600	146.59560	281.75620	260.89783	46.83850	291.83923	89.90816	806.80072	-395.36905	11.37580	545.94409	-369.77377	167.67923	553.51782	-367.16562	-9.30301	570.03577	514.05438	138.76031	574.33655	518.48102	
3510	35.090	-178.26756	7.39273	-156.32365	292.70471	1.91317	-189.38095	-204.45926	147.50656	281.74628	261.31906	46.98577	291.70459	90.13844	806.21106	-395.96396	11.92041	545.07635	-369.71353	167.48676	552.74213	-367.13800	-9.37723	570.19000	513.52051	138.78160	574.60583	518.21069	
3511	35.100	-177.43274	7.16896	-156.61913	293.24423	2.06167	-189.25400	-202.20860	148.23289	281.61890	261.92880	47.25623	291.70993	89.88255	805.43896	-396.76535	11.91112	544.43420	-369.84354	167.41486	552.31293	-367.70465	-9.46031	570.57373	513.15942	138.31219	574.83435	517.60480	
3512	35.110	-177.15279	7.37891	-156.26433	294.23923	1.94882	-189.44649	-199.83263	148.43527	281.31738	262.81604	47.47617	291.61539	89.65018	804.73401	-397.24966	11.55471	544.02148	-370.63791	167.69444	551.66077	-367.83557	-9.46731	570.94745	512.91089	138.37482	575.31171	517.22516	
3513	35.120	-176.53961	7.34492	-156.28419	294.83493	1.91733	-189.57182	-197.11217	148.02348	281.77139	263.28955	47.60896	291.53775	89.56386	804.11749	-397.67130	11.95579	543.06329	-370.32889	167.61655	550.97736	-368.13205	-9.38316	571.34644	512.87170	138.13663	575.84729	516.82367	
3514	35.130	-175.83626	6.97181	-156.43208	295.31406	2.14189	-189.67929	-194.32108	146.43323	281.51199	263.78232	47.66425	291.47208	89.57802	803.35162	-398.24695	11.77182	542.55670	-370.55280	167.41573	550.25586	-368.30875	-9.33588	571.78754	512.63019	138.42574	576.23138	516.67377	
3515	35.140	-175.10667	6.83863	-156.35374	295.54889	1.89394	-189.89165	-192.31694	142.07071	281.61813	264.03397	47.68262	291.41089	89.78539	802.58398	-398.60547	11.88007	541.74963	-370.60077	167.35068	549.74969	-368.52707	-9.29928	572.18628	512.47565	138.45819	576.50293	516.60358	
3516	35.150	-174.80528	7.16759	-156.27794	296.15533	1.84233	-189.86378	-190.63342	135.68346	281.31906	265.39371	48.10569	291.53763	90.04443	801.95538	-398.90433	11.79817	541.12537	-370.62915	167.40770	549.04126	-368.66055	-8.93305	572.58167	512.56836	138.75336	576.92596	516.36902	
3517	35.160	-174.16464	6.81241	-156.39551	296.95261	1.64700	-189.87270	-188.69498	127.15838	280.55933	265.90842	48.07268	291.35892	89.47093	801.41681	-399.45154	11.63669	540.62097	-370.69458	167.45879	548.51404	-368.50031	-8.90824	573.10803	512.52618	138.92841	577.34717	516.32690	
3518	35.170	-173.06401	6.49131	-156.48015	298.04468	1.94752	-189.59435	-186.95895	117.07837	280.21860	266.24008	47.99752	291.21121	89.24825	800.82568	-399.74899	11.44767	540.26263	-370.88162	167.29181	547.87079	-368.92798	-8.86342	573.54199	512.40546	139.11885	577.69531	516.23499	
3519	35.180	-172.39954	6.48697	-156.58400	298.27841	2.06189	-189.76476	-184.74194	105.57719	280.08279	266.94904	48.08716	291.13321	89.33486	800.51544	-400.07281	11.54251	539.79358	-370.89536	167.13129	547.52576	-368.68777	-8.86386	573.81665	512.31262	138.99969	578.02631	516.23260	
3520	35.190	-171.65984	6.19864	-156.31668	298.79645	2.10522	-189.96730	-182.77214	94.30313	280.93195	267.79034	48.13121	290.97632	89.41500	800.12817	-400.29407	11.61700	539.33881	-370.78720	167.11748	547.21472	-368.73828	-8.82107	573.98907	512.21783	139.22804	578.25787	516.47791	
3521	35.200	-171.23189	6.15762	-156.28349	299.55600	2.22765	-190.05084	-180.73132	83.68588	281.81683	268.35669	48.08271	290.95810	89.53241	799.88171	-400.41080	11.67781	539.03564	-370.81717	167.23071	546.92017	-368.62830	-8.83960	574.12109	512.18732	139.27292	578.47021	516.46387	
